ModelForces
version=1
nRows=4
nColumns=155
inDegrees=no

This file contains the forces exerted on a model during a simulation.

A force is a generalized force, meaning that it can be either a force (N) or a torque (Nm).

Units are S.I. units (second, meters, Newtons, ...)
Angles are in degrees.

endheader
time	glut_med1_r	glut_med2_r	glut_med3_r	glut_min1_r	glut_min2_r	glut_min3_r	semimem_r	semiten_r	bifemlh_r	bifemsh_r	sar_r	add_long_r	add_brev_r	add_mag1_r	add_mag2_r	add_mag3_r	tfl_r	pect_r	grac_r	glut_max1_r	glut_max2_r	glut_max3_r	iliacus_r	psoas_r	quad_fem_r	gem_r	peri_r	rect_fem_r	vas_med_r	vas_int_r	vas_lat_r	med_gas_r	lat_gas_r	soleus_r	tib_post_r	flex_dig_r	flex_hal_r	tib_ant_r	per_brev_r	per_long_r	per_tert_r	ext_dig_r	ext_hal_r	glut_med1_l	glut_med2_l	glut_med3_l	glut_min1_l	glut_min2_l	glut_min3_l	semimem_l	semiten_l	bifemlh_l	bifemsh_l	sar_l	add_long_l	add_brev_l	add_mag1_l	add_mag2_l	add_mag3_l	tfl_l	pect_l	grac_l	glut_max1_l	glut_max2_l	glut_max3_l	iliacus_l	psoas_l	quad_fem_l	gem_l	peri_l	rect_fem_l	vas_med_l	vas_int_l	vas_lat_l	med_gas_l	lat_gas_l	soleus_l	tib_post_l	flex_dig_l	flex_hal_l	tib_ant_l	per_brev_l	per_long_l	per_tert_l	ext_dig_l	ext_hal_l	ercspn_r	ercspn_l	intobl_r	intobl_l	extobl_r	extobl_l	femur_lat_meniscii_r.femur_lat_r.force.X	femur_lat_meniscii_r.femur_lat_r.force.Y	femur_lat_meniscii_r.femur_lat_r.force.Z	femur_lat_meniscii_r.femur_lat_r.torque.X	femur_lat_meniscii_r.femur_lat_r.torque.Y	femur_lat_meniscii_r.femur_lat_r.torque.Z	femur_lat_meniscii_r.meniscus_lat_r.force.X	femur_lat_meniscii_r.meniscus_lat_r.force.Y	femur_lat_meniscii_r.meniscus_lat_r.force.Z	femur_lat_meniscii_r.meniscus_lat_r.torque.X	femur_lat_meniscii_r.meniscus_lat_r.torque.Y	femur_lat_meniscii_r.meniscus_lat_r.torque.Z	femur_med_meniscii_r.femur_med_r.force.X	femur_med_meniscii_r.femur_med_r.force.Y	femur_med_meniscii_r.femur_med_r.force.Z	femur_med_meniscii_r.femur_med_r.torque.X	femur_med_meniscii_r.femur_med_r.torque.Y	femur_med_meniscii_r.femur_med_r.torque.Z	femur_med_meniscii_r.meniscus_med_r.force.X	femur_med_meniscii_r.meniscus_med_r.force.Y	femur_med_meniscii_r.meniscus_med_r.force.Z	femur_med_meniscii_r.meniscus_med_r.torque.X	femur_med_meniscii_r.meniscus_med_r.torque.Y	femur_med_meniscii_r.meniscus_med_r.torque.Z	femur_med_tibia_r.tibia_upper_r.force.X	femur_med_tibia_r.tibia_upper_r.force.Y	femur_med_tibia_r.tibia_upper_r.force.Z	femur_med_tibia_r.tibia_upper_r.torque.X	femur_med_tibia_r.tibia_upper_r.torque.Y	femur_med_tibia_r.tibia_upper_r.torque.Z	femur_med_tibia_r.femur_med_r.force.X	femur_med_tibia_r.femur_med_r.force.Y	femur_med_tibia_r.femur_med_r.force.Z	femur_med_tibia_r.femur_med_r.torque.X	femur_med_tibia_r.femur_med_r.torque.Y	femur_med_tibia_r.femur_med_r.torque.Z	femur_lat_tibia_r.tibia_upper_r.force.X	femur_lat_tibia_r.tibia_upper_r.force.Y	femur_lat_tibia_r.tibia_upper_r.force.Z	femur_lat_tibia_r.tibia_upper_r.torque.X	femur_lat_tibia_r.tibia_upper_r.torque.Y	femur_lat_tibia_r.tibia_upper_r.torque.Z	femur_lat_tibia_r.femur_lat_r.force.X	femur_lat_tibia_r.femur_lat_r.force.Y	femur_lat_tibia_r.femur_lat_r.force.Z	femur_lat_tibia_r.femur_lat_r.torque.X	femur_lat_tibia_r.femur_lat_r.torque.Y	femur_lat_tibia_r.femur_lat_r.torque.Z	aACL_R	pACL_R	aPCL_R	pPCL_R	aMCL_R	mMCL_R	pMCL_R	aLCL_R	mLCL_R	pLCL_R	aPCL_L	pPCL_L	aMCL_L	aLCL_L
      0.14917084	     12.19947047	      8.94932750	      9.63338054	      4.12032910	      4.77142400	      5.22031694	     70.09212816	    161.91459963	    173.64212682	    326.07555542	    126.53515548	      8.91394069	      6.39110100	      0.00000000	      3.90711415	      6.61968722	      5.09367422	      3.47956848	     97.77699646	      5.78022290	      8.79452903	      6.61597053	     28.66154458	     19.80025372	      5.67411247	      3.83996959	      6.34706637	     42.54796301	      4.37257680	     33.12154318	     45.51273709	      0.00000000	      0.00000000	      0.00000000	      0.00000000	      0.00000000	      0.00000000	     33.12290068	      3.17751120	      2.96415637	     13.25307176	     29.41576657	      8.26438731	     12.19947047	      8.94932750	      9.63338054	      4.12032910	      4.77142400	      5.22031694	      0.00000000	      6.66041339	     13.07851831	     11.29452812	      2.35023005	      8.91394069	      6.39110100	      0.00000000	      3.90711415	      6.61968722	      5.72344589	      3.47956848	      2.42902632	      5.78022290	      8.79452903	      6.61597053	     28.66154458	     19.80025372	      5.67411247	      3.83996959	      6.34706637	     18.40025245	      0.00000000	      0.00000000	      0.00000000	     21.37805420	     10.15802852	     53.77886175	     52.68921828	      5.77427359	      5.15680212	     14.23329074	      7.65044807	     19.20914630	      3.06062445	      9.72061920	      3.05784344	     38.78917544	     38.78917544	     14.48938633	     14.48938633	     31.76004754	     31.76004754	     40.85774978	    356.99600072	     46.01400867	    -27.24669206	      1.12935366	     14.20012070	    -40.85774978	   -356.99600072	    -46.01400867	     10.10124146	     -2.03576314	      8.05634250	     34.57951529	     54.22642004	     10.57638763	     -3.03576190	     -0.73573594	     13.72226168	    -34.57951529	    -54.22642004	    -10.57638763	     -0.94972316	      0.48704933	      0.58333410	   -138.58667872	   -583.17497518	    122.57569671	    -12.31449903	      4.93631168	      9.58267514	    138.58667872	    583.17497518	   -122.57569671	     60.44534265	     -2.91808003	     54.43716048	     -0.34623543	     -7.60034594	     -1.62251119	      0.22878344	     -0.04777553	      0.17512907	      0.34623543	      7.60034594	      1.62251119	     -0.84134287	      0.01756753	      0.09709157	      8.67716530	    -14.09469254	    136.33278874	    107.67650897	      0.00000000	      0.00000000	      0.00000000	      0.00000000	      0.00000000	      0.00000000	      0.00000000	      0.00000000	      0.00000001	      0.00000000
      0.14952544	     12.18174968	      8.93393937	      9.61662362	      4.11352907	      4.76396925	      5.21085485	     69.27898734	    162.27489499	    172.83420713	    325.74773698	    126.74927070	      8.89844067	      6.38065112	      0.00000000	      3.90029476	      6.60732323	      5.09930067	      3.47378459	     97.96973695	      5.77023667	      8.77930339	      6.60434841	     28.63309393	     19.76780025	      5.66454723	      3.83526922	      6.34614656	     42.74848192	      8.89020722	     33.21055461	     45.55335042	      0.00000000	      0.00000000	      0.00000000	      0.00000000	      0.00000000	      0.00000000	     33.19389292	      3.22488528	      3.02294538	     15.54924613	     29.61018785	      8.31325601	     12.18174968	      8.93393937	      9.61662362	      4.11352907	      4.76396925	      5.21085485	      0.00000000	      6.64827696	     13.05780839	     11.27546332	      2.34636936	      8.89844067	      6.38065112	      0.00000000	      3.90029476	      6.60732323	      5.71586113	      3.47378459	      2.42496661	      5.77023667	      8.77930339	      6.60434841	     28.63309393	     19.76780025	      5.66454723	      3.83526922	      6.34614656	     18.36506469	      0.00000000	      0.00000000	      0.00000000	     21.37726310	     10.15625123	     53.71209737	     52.64709664	      5.76667179	      5.15039377	     14.20878941	      7.63625874	     19.18456500	      3.05562803	      9.69515395	      3.04937733	     38.72501744	     38.72501744	     14.46355802	     14.46355802	     31.73655555	     31.73655555	     41.80546808	    353.25729891	     45.54917647	    -26.96842484	      1.13990982	     14.59882010	    -41.80546808	   -353.25729891	    -45.54917647	      9.99246253	     -2.04149023	      7.97409974	     35.61015048	     53.49372156	     10.52184045	     -3.03165124	     -0.76257309	     14.14860338	    -35.61015048	    -53.49372156	    -10.52184045	     -0.93463739	      0.51289900	      0.54427591	   -145.91508956	   -581.52190848	    124.02769044	    -12.34233968	      5.09423327	      9.37766186	    145.91508956	    581.52190848	   -124.02769044	     61.02947253	     -3.05372521	     57.46860018	     -0.40762421	     -6.75253983	     -1.44283473	      0.20302070	     -0.04486858	      0.15285570	      0.40762421	      6.75253983	      1.44283473	     -0.74783842	      0.01777226	      0.12787630	      9.40171421	    -13.13405767	    141.05523185	    109.69871597	      0.00000000	      0.00000000	      0.00000000	      0.00000000	      0.00000000	      0.00000000	      0.00000000	      0.00000000	      0.00000001	      0.00000000
      0.15032730	     12.14153942	      8.89941305	      9.57902671	      4.09827065	      4.74724294	      5.18961573	     67.39746086	    163.17051469	    171.14324316	    325.13907775	    127.25849575	      8.86366409	      6.35720236	      0.00000000	      3.88499100	      6.57957971	      5.11350256	      3.46080650	     98.43790254	      5.74783152	      8.74514311	      6.57827320	     28.56926766	     19.69499406	      5.64308486	      3.82472488	      6.34377172	     43.15907338	     20.16024238	     33.12664908	     45.47374745	      0.00000000	      0.00000000	      0.00000000	      0.00000000	      0.00000000	      0.00000000	     33.33157276	      3.33107378	      3.15580166	     31.97556854	     30.02831958	      8.41345552	     12.14153942	      8.89941305	      9.57902671	      4.09827065	      4.74724294	      5.18961573	      0.00000000	      6.62104736	     13.01103529	     11.23268661	      2.33770633	      8.86366409	      6.35720236	      0.00000000	      3.88499100	      6.57957971	      5.69883799	      3.46080650	      2.41585739	      5.74783152	      8.74514311	      6.57827320	     28.56926766	     19.69499406	      5.64308486	      3.82472488	      6.34377172	     18.28605139	      0.00000000	      0.00000000	      0.00000000	     21.37472644	     10.15188468	     53.56041589	     52.55224428	      5.74960657	      5.13601557	     14.15360581	      7.60434692	     19.12908341	      3.04441874	      9.63838101	      3.03055898	     38.58105560	     38.58105560	     14.40560905	     14.40560905	     31.68385551	     31.68385551	     41.37364846	    349.50412916	     44.86491363	    -26.59655652	      1.11279480	     14.39129273	    -41.37364846	   -349.50412916	    -44.86491363	      9.87038468	     -2.00602672	      7.99169915	     37.15614016	     53.24175057	     10.30063596	     -2.95006385	     -0.80128363	     14.77563164	    -37.15614016	    -53.24175057	    -10.30063596	     -0.93285546	      0.55244754	      0.51689633	   -157.57131508	   -584.34149612	    124.81369176	    -12.41854456	      5.32434322	      9.24638288	    157.57131508	    584.34149612	   -124.81369176	     61.41339867	     -3.27078403	     62.22144507	     -0.32093542	     -4.95629341	     -1.06855603	      0.14923756	     -0.03391276	      0.11264279	      0.32093542	      4.95629341	      1.06855603	     -0.55293638	      0.01368976	      0.10240664	      9.21984402	    -12.61748969	    152.54457408	    115.59582679	      0.00000000	      0.00000000	      0.00000000	      0.00000000	      0.00000000	      0.00000000	      0.00000000	      0.00000000	      0.00000001	      0.00000000
      0.15112916	     12.10117153	      8.86525903	      9.54183602	      4.08317512	      4.73069689	      5.16859389	     65.36536595	    163.95404153	    169.39466486	    323.80974468	    127.63087944	      8.82926356	      6.33400318	      0.00000000	      3.86984842	      6.55213218	      5.12579187	      3.44796728	     98.79459630	      5.72566923	      8.71135317	      6.55248097	     28.50614109	     19.62298615	      5.62185280	      3.81429687	      6.34099363	     43.57874087	     29.39059619	     34.28717931	     45.59728866	      0.00000000	      0.00000000	      0.00000000	      0.00000000	      0.00000000	      0.00000000	     33.52172275	      3.43362410	      3.28571602	     75.49842196	     30.59948785	      8.62618558	     12.10117153	      8.86525903	      9.54183602	      4.08317512	      4.73069689	      5.16859389	      0.00000000	      6.59411267	     12.96435641	     11.19036973	      2.32913566	      8.82926356	      6.33400318	      0.00000000	      3.86984842	      6.55213218	      5.68199147	      3.44796728	      2.40684577	      5.72566923	      8.71135317	      6.55248097	     28.50614109	     19.62298615	      5.62185280	      3.81429687	      6.34099363	     18.20780647	      0.00000000	      0.00000000	      0.00000000	     21.37116073	     10.14704095	     53.40781876	     52.45795215	      5.73268844	      5.12176358	     14.09873810	      7.57267839	     19.07375643	      3.03333197	      9.58274985	      3.01219668	     38.43863153	     38.43863153	     14.34828771	     14.34828771	     31.63173588	     31.63173588	     42.69298066	    349.29135025	     43.51265300	    -26.03393998	      1.12874340	     14.89687051	    -42.69298066	   -349.29135025	    -43.51265300	      9.82095319	     -2.00388143	      8.03574351	     38.89223816	     53.94737380	      9.98118458	     -2.80478908	     -0.84502750	     15.46901773	    -38.89223816	    -53.94737380	     -9.98118458	     -0.95532978	      0.59860321	      0.51439386	   -166.79069496	   -593.02573681	    126.17543253	    -12.60698184	      5.54394184	      9.34980647	    166.79069496	    593.02573681	   -126.17543253	     62.14137632	     -3.46243834	     65.91255669	     -0.21614291	     -3.59486805	     -0.76407707	      0.10800910	     -0.02415912	      0.08324066	      0.21614291	      3.59486805	      0.76407707	     -0.39669244	      0.00962936	      0.06678274	      8.08233088	    -12.93256600	    164.36440485	    121.43323090	      0.00000000	      0.00000000	      0.00000000	      0.00000000	      0.00000000	      0.00000000	      0.00000000	      0.00000000	      0.00000001	      0.00000000
